<svg version="1.1" xmlns="http://www.w3.org/2000/svg" style="display: block;" viewBox="0 0 2048 2048" width="1024" height="1024" preserveAspectRatio="none">
<defs>
	<linearGradient id="Gradient1" gradientUnits="userSpaceOnUse" x1="496.941" y1="1071.55" x2="323.042" y2="815.381">
		<stop class="stop0" offset="0" stop-opacity="1" stop-color="rgb(29,98,144)"/>
		<stop class="stop1" offset="1" stop-opacity="1" stop-color="rgb(35,146,175)"/>
	</linearGradient>
	<linearGradient id="Gradient2" gradientUnits="userSpaceOnUse" x1="604.758" y1="1340.76" x2="236.966" y2="706.659">
		<stop class="stop0" offset="0" stop-opacity="1" stop-color="rgb(183,207,211)"/>
		<stop class="stop1" offset="1" stop-opacity="1" stop-color="rgb(230,243,245)"/>
	</linearGradient>
</defs>
<path transform="translate(0,0)" fill="rgb(197,223,229)" d="M 242.251 696.435 C 265.793 694.588 295.346 696.097 319.566 696.095 L 459.466 696.038 L 547.773 695.964 C 598.145 695.913 636.336 693.249 675.683 731.079 C 703.314 757.645 713.538 783.778 714.249 822.095 C 714.944 859.532 714.606 896.792 714.502 934.137 L 714.729 1076.75 L 714.811 1161.19 C 714.957 1213.37 717.986 1264.58 678.677 1305.05 C 654.201 1330.25 628.803 1341.28 593.751 1342.28 C 570.491 1343.72 537.362 1342.68 513.159 1342.62 L 375.494 1342.53 L 288.286 1342.72 C 244.348 1342.93 206.56 1346.45 169.783 1316.71 C 114.811 1272.26 120.82 1216.72 120.91 1153.63 L 121.045 1016.23 L 121.056 882.165 C 121.062 865.825 121.464 848.685 121.093 832.416 C 119.372 757 166.272 703.677 242.251 696.435 z"/>
<path transform="translate(0,0)" fill="url(#Gradient2)" d="M 183.844 722.734 C 210.424 695.91 294.179 705.453 329.516 703.607 C 343.375 704.101 356.892 704.608 370.785 704.558 C 445.648 704.293 518.776 700.57 593.774 704.203 C 646.446 706.755 694.9 744.135 704.247 797.571 C 707.362 815.382 706.11 834.959 706.464 852.935 C 707.416 887.659 704.684 923.239 704.572 957.56 L 704.305 1128.01 C 704.446 1159.81 705.451 1190.87 703.325 1222.68 C 701.3 1252.96 688.612 1286.45 665.377 1306.69 C 649.858 1320.2 630.499 1329.98 610.055 1333.25 C 594.64 1335.72 576.827 1334.04 561.153 1334.03 L 460.388 1333.98 L 310.251 1334.04 C 284.804 1334.05 258.181 1334.37 232.791 1333.61 C 213.316 1333.03 185.08 1322.57 172.138 1307.4 L 171.138 1306.21 C 160.965 1294.22 146.622 1278.28 140.267 1263.84 C 126.573 1232.72 129.459 1198.36 129.469 1164.9 L 129.502 1053.6 L 128.498 889.061 C 128.439 832.861 119.045 775.68 165.601 735.218 C 169.598 731.745 175.287 726.918 180.241 725.19 L 183.844 722.734 z"/>
<path transform="translate(0,0)" fill="rgb(255,255,255)" d="M 183.844 722.734 C 207.726 713.169 220.116 705.684 248.096 705.967 C 253.323 706.019 259.592 705.345 264.773 706.253 L 264.005 707.047 C 246.492 707.054 251.611 706.774 236.365 712.958 C 213.923 722.101 188.345 733.396 170.769 750.795 C 147.583 773.747 142.67 810.058 136.311 840.01 C 130.773 866.094 130.918 878.925 130.946 905.399 C 130.977 934.98 131.784 965.835 130.756 995.268 C 128.259 937.361 131.252 876.143 130.327 818.02 C 129.943 793.907 140.774 763.566 157.341 746.253 C 164.509 738.506 173.649 732.394 180.241 725.19 L 183.844 722.734 z"/>
<path transform="translate(0,0)" fill="url(#Gradient1)" d="M 418.072 761.371 C 425.297 760.558 433.119 761.442 440.119 763.382 C 451.706 766.593 462.179 773.089 471.483 780.568 C 484.222 790.807 596.033 903.011 599.895 910.637 C 601.414 913.637 601.375 915.437 600.249 918.527 C 592.945 922.114 568.771 920.004 559.225 919.99 C 546.115 919.97 508.611 922.136 498.055 918.626 C 476.651 911.506 445.959 857.624 424.754 856.473 C 418.016 856.108 412.2 860.906 407.436 865.123 C 388.965 881.47 371.936 900.519 354.546 918.062 C 344.46 928.237 331.431 938.866 323.03 950.298 C 320.734 953.423 319.137 957.082 319.063 961.005 C 318.798 974.932 377.344 1026.55 389.653 1039.18 C 398.08 1047.86 439.16 1085.46 440.704 1094.49 C 441.451 1098.86 438.548 1103.86 436.099 1107.21 C 427.646 1118.81 404.701 1141.2 390.018 1143.27 C 383.415 1144.2 378.171 1139.94 373.199 1136.14 C 364.516 1129.51 356.746 1121.35 348.723 1113.93 C 327.491 1094.29 307.044 1074.02 286.653 1053.52 C 269.464 1036.24 248.305 1018.43 234.698 998.152 C 229.454 990.337 225.686 979.542 224.536 970.212 C 221.856 948.48 229.531 929.216 242.904 912.374 C 261.002 889.579 285.078 868.71 305.733 847.947 L 346.502 806.979 C 369.811 783.564 383.646 765.261 418.072 761.371 z"/>
<path transform="translate(0,0)" fill="rgb(30,173,129)" d="M 439.027 919.013 C 450.662 919.398 469.08 940.194 478.321 949.214 C 498.561 969.11 518.694 989.115 538.721 1009.23 C 570.712 1041.27 614.009 1075.38 594.717 1125.89 C 587.017 1146.05 577.782 1155.46 562.914 1170.61 L 508.69 1225.42 C 481.194 1253.17 453.346 1289.32 411.235 1289.4 C 375.306 1289.46 354.913 1263.34 331.651 1240.04 L 288.319 1196.66 C 272.969 1181.49 257.475 1166.22 242.594 1150.58 C 237.833 1145.57 228.545 1137.74 232.331 1130.62 C 239.279 1126.1 259.495 1127.66 268.372 1127.68 C 286.163 1127.57 303.954 1127.71 321.741 1128.1 C 335.798 1135.84 366.66 1170.28 379.789 1182.37 C 385.812 1188.23 391.026 1194.32 398.158 1198.92 C 407.657 1205.36 416.207 1202.79 423.905 1194.78 C 448.599 1169.11 474.146 1144.11 499.024 1118.61 C 505.558 1111.91 510.465 1103.47 504.193 1094.83 C 497.209 1085.2 487.633 1077.1 479.151 1068.67 L 424.19 1013.39 C 413.011 1002.17 378.807 976.623 390.834 960.047 C 401.767 944.978 420.884 924.622 439.027 919.013 z"/>
<path transform="translate(0,0)" fill="rgb(0,74,121)" d="M 1696.42 804.545 C 1722.07 803.224 1751.65 803.935 1777.42 804.117 C 1802.54 804.294 1832.49 815.258 1849.62 834.331 C 1870.8 857.896 1879.46 896.418 1877.39 927.451 C 1875.19 960.337 1866.08 985.486 1841.15 1007.3 C 1808.85 1033.6 1770.87 1030.13 1731.7 1028.77 C 1715.95 1028.33 1700.21 1028.16 1684.46 1028.25 C 1683.73 1017.73 1684.11 1002.95 1684.1 992.043 L 1684.1 926.089 C 1684.1 889.681 1682.6 840.565 1684.67 805.098 L 1696.42 804.545 z"/>
<path transform="translate(0,0)" fill="rgb(255,255,255)" d="M 1731.97 844.871 C 1754.47 844.761 1785.68 841.827 1803.59 857.268 C 1834.09 883.564 1834.18 941.728 1810.49 972.024 C 1809.79 972.756 1809.08 973.477 1808.37 974.19 C 1788.11 994.202 1758.95 990.181 1732 990.022 L 1731.97 844.871 z"/>
<path transform="translate(0,0)" fill="rgb(0,74,121)" d="M 1395.67 804.434 C 1403.22 803.066 1412.43 804.661 1419.78 806.473 C 1420.82 829.681 1419.98 860.215 1419.98 884.022 L 1420.03 1029.91 L 1372.85 1029.88 C 1364.88 1019.72 1346.73 984.906 1339.25 971.976 C 1321.83 941.858 1302.74 911.464 1286.62 880.718 C 1285.08 877.791 1283.31 871.721 1281.68 867.906 C 1283.32 881.404 1282.94 896.369 1282.96 910.058 L 1283.01 967.162 C 1283.02 977.012 1283.71 1018.62 1282.38 1026.73 C 1279.97 1029.06 1277.38 1029.1 1273.99 1029.75 C 1262.4 1029.96 1250.81 1030.03 1239.23 1029.96 C 1239.16 1028.41 1239.11 1026.85 1239.06 1025.29 C 1238.82 1016.79 1238.43 980.026 1238.94 974.204 C 1240.25 959.271 1236.24 811.436 1241.06 806.337 C 1247.62 804.828 1280.19 804.838 1288.86 804.737 C 1293.03 809.77 1300.48 823.441 1304.02 829.605 L 1328.31 871.974 C 1337.02 887.242 1345.81 902.456 1354.7 917.616 C 1361.69 929.524 1371.78 944.968 1375.88 957.582 L 1376 806.269 C 1382.14 805.998 1389.46 805.07 1395.67 804.434 z"/>
<path transform="translate(0,0)" fill="rgb(0,74,121)" d="M 1073.95 803.863 C 1083.54 803.153 1126.03 803.114 1133.66 805.847 C 1138.06 811.199 1151.43 855.672 1154.67 865.255 L 1186.55 958.855 C 1194.26 981.915 1201.7 1006.3 1210.13 1028.99 C 1193.93 1029.78 1177.38 1029.17 1161.14 1028.78 C 1155.93 1017.15 1149.65 996.293 1145.65 984 L 1134.5 984.011 L 1059.51 984.069 C 1054.6 999.106 1049.5 1014.08 1044.21 1028.99 L 999.116 1029.12 C 1000.51 1021.37 1007.14 1002.71 1009.9 994.319 L 1032.55 926.213 L 1058.92 848.363 C 1063.34 835.145 1068.71 816.196 1073.95 803.863 z"/>
<path transform="translate(0,0)" fill="rgb(255,255,255)" d="M 1103.2 849.702 C 1113.6 880.885 1124.21 911.993 1135.05 943.024 L 1105.35 943.022 L 1072.2 942.994 C 1084.79 912.345 1091.43 878.702 1103.2 849.702 z"/>
<path transform="translate(0,0)" fill="rgb(0,74,121)" d="M 1523 803.895 C 1531 803.685 1576.93 804.098 1581.94 805.587 C 1586.95 811.625 1652.15 1009.73 1657.84 1029.58 C 1646.23 1030.37 1620.45 1029.57 1609.21 1027.8 C 1603.24 1013.75 1599.98 998.632 1594.05 985.193 C 1590.98 983.405 1590.4 984.067 1586.25 983.999 L 1507.92 984.033 C 1504.51 997.133 1497.49 1015.84 1492.93 1029.07 L 1447.68 1029.03 C 1463.47 973.45 1486.53 916.864 1503.78 861.476 C 1509.48 843.178 1515.96 821.52 1523 803.895 z"/>
<path transform="translate(0,0)" fill="rgb(255,255,255)" d="M 1550.76 849.417 C 1555.16 855.631 1578.27 929.81 1583.04 943.021 L 1553.5 943.018 L 1521.45 942.981 C 1531.11 915.73 1543.44 877.582 1550.76 849.417 z"/>
<path transform="translate(0,0)" fill="rgb(0,74,121)" d="M 895.197 800.386 C 899.038 800.109 902.887 799.975 906.737 799.983 C 931.214 799.956 963.178 808.259 980.835 825.788 C 976.711 835.369 965.061 852.588 958.781 860.916 C 941.984 851.479 926.115 841.122 905.913 840.531 C 890.547 840.082 872.867 849.282 873.374 866.855 C 874.506 883.775 898.441 889.978 911.454 894.211 C 931.481 900.492 950.313 905.861 966.592 919.674 C 990.531 939.985 992.11 971.671 979.711 998.789 C 967.651 1025.17 934.47 1035.05 907.607 1035.98 C 876.858 1036.08 857.195 1030.49 830.278 1013.83 C 825.597 1010.93 822.91 1007.89 821.849 1002.51 C 822.996 995.86 837.172 977.642 841.758 971.248 C 864.135 985.169 882.301 996.662 909.796 994.227 C 916.426 993.821 926.421 991.172 930.27 984.901 C 954.567 945.313 897.042 939.356 873.231 930.11 C 861.986 925.744 855.98 922.786 847.935 916.848 C 819.55 895.895 818.331 851.952 839.575 825.653 C 852.966 808.97 874.616 802.581 895.197 800.386 z"/>
<path transform="translate(0,0)" fill="rgb(30,173,129)" d="M 1563.12 1091.39 C 1600.06 1087.1 1630.17 1114.66 1633.53 1150.68 C 1637.47 1193.03 1615.41 1225.2 1572.31 1229.63 C 1508.98 1235.19 1481.5 1159.66 1516.72 1113.54 C 1528.38 1098.27 1544.71 1093.17 1563.12 1091.39 z"/>
<path transform="translate(0,0)" fill="rgb(255,255,255)" d="M 1564.2 1116.2 C 1614.93 1113.68 1618.88 1193.99 1572.54 1203.96 C 1551.28 1204.76 1536.45 1193.76 1532.52 1172.67 C 1527.64 1146.47 1535.65 1121.86 1564.2 1116.2 z"/>
<path transform="translate(0,0)" fill="rgb(30,173,129)" d="M 1656.88 1093.38 C 1694.54 1093.15 1769.97 1083.33 1755.4 1149.29 C 1752.68 1161.61 1741.98 1169.09 1731.5 1174.85 C 1737.68 1188.52 1754.5 1212.5 1763.13 1227.02 L 1735.75 1227.01 C 1735.18 1227 1733.01 1226.6 1732.36 1226.49 C 1726.17 1221.19 1708.74 1188.23 1702.97 1178.43 C 1697.12 1178.18 1690.74 1178.23 1684.84 1178.16 L 1684.81 1226.93 L 1656.84 1226.97 C 1656.18 1213.48 1656.93 1193.23 1656.97 1179.28 L 1656.88 1093.38 z"/>
<path transform="translate(0,0)" fill="rgb(255,255,255)" d="M 1693.2 1116.36 C 1704.63 1115.89 1716.47 1116.81 1724.26 1126.33 C 1732.56 1136.47 1726.84 1146.79 1717.63 1153.4 C 1705.03 1157.02 1697.72 1156.05 1684.79 1155.71 C 1684.82 1144.55 1683.98 1128.9 1685.03 1118.23 C 1687.55 1116.43 1689.75 1116.74 1693.2 1116.36 z"/>
<path transform="translate(0,0)" fill="rgb(30,173,129)" d="M 1311.07 1093.15 L 1344.83 1093.38 C 1360.27 1135.63 1375.61 1184 1390.59 1227.08 C 1380.87 1227.33 1371.15 1227.09 1361.45 1226.37 C 1357.86 1217.9 1357.06 1208.09 1352.61 1200.26 C 1351.05 1197.52 1348.6 1198.17 1345.25 1198.01 L 1301.02 1198.02 C 1297.83 1207.94 1294.78 1217.41 1291.19 1227.21 C 1283.08 1226.8 1272.97 1227.06 1264.71 1227.04 C 1271.97 1203.03 1282.49 1175.97 1290.09 1151.71 C 1292.94 1142.59 1307.43 1098.56 1311.07 1093.15 z"/>
<path transform="translate(0,0)" fill="rgb(255,255,255)" d="M 1326.63 1117.83 C 1330.72 1123.79 1342.34 1164.52 1346.2 1174.99 L 1328.5 1174.91 L 1307.93 1174.94 C 1314.55 1157.55 1320.88 1135.87 1326.63 1117.83 z"/>
<path transform="translate(0,0)" fill="rgb(30,173,129)" d="M 1065.51 1093.45 C 1082.29 1092.46 1111.75 1093.36 1129.37 1093.25 L 1128.99 1117.14 C 1107.88 1117.56 1090.76 1117.97 1069.55 1117.22 L 1069.6 1149.11 L 1123.94 1148.89 C 1124.19 1156.41 1124.06 1164.49 1124.06 1172.05 L 1069.73 1172.21 L 1069.64 1197.25 C 1069.71 1200.85 1069.05 1201.2 1070.87 1203.28 C 1087.67 1204.51 1112.64 1203.38 1130.04 1203.1 C 1130.36 1210.71 1130.14 1219.63 1130.13 1227.34 C 1100.76 1227.14 1071.4 1227.11 1042.03 1227.27 C 1041.35 1183.5 1041.95 1137.97 1041.94 1094.07 L 1065.51 1093.45 z"/>
<path transform="translate(0,0)" fill="rgb(30,173,129)" d="M 844.394 1093.45 C 864.374 1092.83 887.918 1093.35 908.153 1093.35 C 908.423 1101.25 908.119 1109.42 907.939 1117.35 C 888.859 1117.76 868.111 1117.23 848.907 1117.12 L 848.778 1149.07 L 903.871 1148.95 L 903.978 1172.05 L 848.909 1172.1 L 848.647 1198.25 C 848.596 1202.09 847.964 1200.57 849.765 1203.23 C 858.892 1204.31 896.814 1203.4 908.642 1203.5 C 909.182 1211.21 908.954 1219.44 908.887 1227.22 L 821.365 1227.22 L 821.499 1094.05 L 844.394 1093.45 z"/>
<path transform="translate(0,0)" fill="rgb(30,173,129)" d="M 1823.21 1091.38 C 1842.66 1090.17 1857.1 1093.51 1873.24 1104.73 C 1868.44 1112.5 1864.58 1118.11 1858.89 1125.16 C 1845.65 1118.07 1823.14 1106.76 1812.27 1120.9 C 1802.17 1136.44 1823.09 1143.7 1834.43 1146.5 C 1868.99 1155.03 1892.25 1178.62 1869.88 1213.62 C 1862.51 1225.15 1844.03 1228.41 1830.37 1230.02 C 1811.01 1230.55 1791.69 1224.67 1777.4 1211.29 C 1781.84 1204.67 1786.39 1198.13 1791.05 1191.67 C 1806.37 1201.64 1827.83 1213.11 1845.15 1198.03 C 1846.99 1196.43 1849.27 1192.14 1848.65 1189.82 C 1842.81 1167.67 1809.76 1172.14 1794.75 1158.61 C 1783.51 1150.25 1780.08 1136.04 1782.51 1122.25 C 1786.43 1100.03 1803.96 1093.41 1823.21 1091.38 z"/>
<path transform="translate(0,0)" fill="rgb(30,173,129)" d="M 1143.66 1093.3 C 1153.29 1093.24 1162.91 1093.27 1172.54 1093.4 C 1178.45 1107.77 1184.81 1128.84 1189.67 1143.97 C 1195.2 1161.2 1203.11 1184.01 1207.03 1201.19 C 1217.88 1165.08 1229.29 1129.14 1241.25 1093.39 C 1250.76 1093.73 1260.72 1093.72 1270.27 1093.85 L 1263.25 1114.83 C 1249.19 1149.13 1236.87 1191.84 1222.82 1227.71 C 1211.4 1227.28 1199.99 1226.69 1188.58 1225.93 C 1179.72 1201.18 1171.35 1175.38 1162.5 1150.58 C 1158.97 1140.71 1144.25 1101.22 1143.66 1093.3 z"/>
<path transform="translate(0,0)" fill="rgb(30,173,129)" d="M 1391.36 1093.47 L 1492.46 1093.42 C 1492.9 1101.35 1492.66 1109 1492.5 1116.93 C 1479.57 1117.08 1466.63 1117.43 1453.71 1117.97 L 1453.68 1191.75 L 1453.7 1227.06 L 1426.04 1226.97 L 1426.05 1118.03 C 1413.53 1118.12 1400.48 1116.29 1387.36 1116.16 C 1387.07 1110.65 1385.85 1098.66 1388.18 1094.08 L 1391.36 1093.47 z"/>
<path transform="translate(0,0)" fill="rgb(30,173,129)" d="M 942.26 1093.47 C 948.968 1093.26 955.715 1093.58 962.426 1093.81 C 962.892 1129.88 962.339 1167.53 962.225 1203.69 C 980.916 1203.75 1000.19 1203.28 1018.92 1203.05 C 1019.29 1208.26 1020.79 1221.21 1018.94 1226.22 C 1018.53 1227.31 1016.99 1227.06 1015.25 1227.28 L 935.092 1226.84 L 934.905 1142.49 C 934.871 1128.54 934.28 1108.5 935.303 1095.14 C 937.281 1093.11 938.508 1093.77 942.26 1093.47 z"/>
</svg>